<svg width="56" height="56" viewBox="0 0 56 56" fill="none" xmlns="http://www.w3.org/2000/svg">
<g id="tdesign:camera-filled">
<path id="Vector" d="M20.4167 29.75C20.4167 27.7387 21.2157 25.8099 22.6379 24.3877C24.06 22.9656 25.9889 22.1666 28.0001 22.1666C30.0113 22.1666 31.9402 22.9656 33.3623 24.3877C34.7845 25.8099 35.5834 27.7387 35.5834 29.75C35.5834 31.7612 34.7845 33.69 33.3623 35.1122C31.9402 36.5343 30.0113 37.3333 28.0001 37.3333C25.9889 37.3333 24.06 36.5343 22.6379 35.1122C21.2157 33.69 20.4167 31.7612 20.4167 29.75Z" fill="#003164"/>
<path id="Vector_2" d="M18.3914 4.66663H37.6087L41.1087 11.6666H53.6667V49H2.33337V11.6666H14.8914L18.3914 4.66663ZM15.75 29.75C15.75 32.9989 17.0407 36.1147 19.338 38.412C21.6353 40.7093 24.7511 42 28 42C31.2489 42 34.3648 40.7093 36.6621 38.412C38.9594 36.1147 40.25 32.9989 40.25 29.75C40.25 26.5011 38.9594 23.3852 36.6621 21.0879C34.3648 18.7906 31.2489 17.5 28 17.5C24.7511 17.5 21.6353 18.7906 19.338 21.0879C17.0407 23.3852 15.75 26.5011 15.75 29.75Z" fill="#003164"/>
</g>
</svg>
