<svg width="51" height="51" viewBox="0 0 51 51" fill="none" xmlns="http://www.w3.org/2000/svg">
<g id="iconoir:healthcare">
<g id="Group">
<path id="Vector" d="M38.25 42.5L46.376 34.374C46.6152 34.1351 46.7497 33.811 46.75 33.473V22.3125C46.75 21.4671 46.4142 20.6564 45.8164 20.0586C45.2186 19.4608 44.4079 19.125 43.5625 19.125C42.7171 19.125 41.9064 19.4608 41.3086 20.0586C40.7108 20.6564 40.375 21.4671 40.375 22.3125V31.875" stroke="#2196F3" stroke-width="3" stroke-linecap="round" stroke-linejoin="round"/>
<path id="Vector_2" d="M38.25 34L40.0732 32.1768C40.1694 32.0814 40.2456 31.9678 40.2974 31.8427C40.3492 31.7175 40.3756 31.5833 40.375 31.4479C40.3735 31.257 40.3196 31.0703 40.2192 30.908C40.1187 30.7458 39.9756 30.6142 39.8055 30.5278L38.8641 30.0581C38.0666 29.6594 37.1638 29.5215 36.2836 29.6642C35.4035 29.8068 34.5904 30.2227 33.9596 30.8529L32.0578 32.7547C31.2607 33.5516 30.8127 34.6324 30.8125 35.7595V42.5M12.75 42.5L4.624 34.374C4.38482 34.1351 4.2503 33.811 4.25 33.473V22.3125C4.25 21.4671 4.58583 20.6564 5.1836 20.0586C5.78137 19.4608 6.59212 19.125 7.4375 19.125C8.28288 19.125 9.09363 19.4608 9.6914 20.0586C10.2892 20.6564 10.625 21.4671 10.625 22.3125V31.875" stroke="#2196F3" stroke-width="3" stroke-linecap="round" stroke-linejoin="round"/>
<path id="Vector_3" d="M12.75 34L10.9268 32.1768C10.7364 31.9815 10.6283 31.7206 10.625 31.4479C10.625 31.059 10.846 30.7041 11.1945 30.5278L12.1359 30.0581C12.9334 29.6594 13.8362 29.5215 14.7164 29.6642C15.5965 29.8068 16.4096 30.2227 17.0404 30.8529L18.9422 32.7547C19.7393 33.5516 20.1873 34.6324 20.1875 35.7595V42.5M29.0424 25.5H21.9576V20.5424H17V13.4576H21.9576V8.5H29.0424V13.4576H34V20.5424H29.0424V25.5Z" stroke="#2196F3" stroke-width="3" stroke-linecap="round" stroke-linejoin="round"/>
</g>
</g>
</svg>
