<svg width="480" height="432" viewBox="0 0 480 432" fill="none" xmlns="http://www.w3.org/2000/svg">
<rect width="480" height="432" rx="25" fill="#2196F3"/>
<path d="M198.25 129C211.781 129 222.75 118.031 222.75 104.5C222.75 90.969 211.781 80 198.25 80C184.719 80 173.75 90.969 173.75 104.5C173.75 118.031 184.719 129 198.25 129Z" fill="white"/>
<path d="M194.75 93H201.75V117H194.75V93Z" fill="#003164"/>
<path d="M186.75 102H209.75V109H186.75V102Z" fill="#003164"/>
<path d="M349.615 189.806V172.996C349.615 170.692 349.166 168.525 348.268 166.495C347.409 164.425 346.218 162.629 344.695 161.106C343.173 159.583 341.376 158.392 339.307 157.533C337.276 156.635 335.109 156.186 332.805 156.186C330.501 156.186 328.315 156.635 326.245 157.533C324.215 158.392 322.438 159.583 320.915 161.106C319.392 162.629 318.182 164.425 317.284 166.495C316.425 168.525 315.995 170.692 315.995 172.996V189.806H349.615ZM366.426 223.368H349.615V206.558H315.995V223.368H299.243V172.996C299.243 168.349 300.122 163.996 301.879 159.935C303.636 155.835 306.018 152.262 309.025 149.216C312.071 146.17 315.624 143.769 319.685 142.011C323.785 140.254 328.159 139.376 332.805 139.376C337.452 139.376 341.806 140.254 345.867 142.011C349.967 143.769 353.54 146.17 356.586 149.216C359.631 152.262 362.033 155.835 363.79 159.935C365.547 163.996 366.426 168.349 366.426 172.996V223.368Z" fill="white"/>
<path d="M288.993 181.372C288.993 185.238 288.486 188.967 287.47 192.559C286.494 196.113 285.088 199.451 283.253 202.575C281.418 205.66 279.231 208.491 276.693 211.068C274.155 213.606 271.324 215.793 268.2 217.628C265.076 219.463 261.718 220.889 258.126 221.904C254.572 222.88 250.863 223.368 246.997 223.368H221.694V139.376H246.997C250.863 139.376 254.572 139.883 258.126 140.899C261.718 141.875 265.076 143.281 268.2 145.116C271.324 146.951 274.155 149.157 276.693 151.734C279.231 154.273 281.418 157.104 283.253 160.227C285.088 163.312 286.494 166.651 287.47 170.243C288.486 173.797 288.993 177.506 288.993 181.372ZM272.183 181.372C272.183 177.897 271.519 174.636 270.192 171.59C268.903 168.545 267.107 165.889 264.803 163.625C262.538 161.321 259.863 159.505 256.779 158.177C253.733 156.85 250.472 156.186 246.997 156.186H238.621V206.558H246.997C250.472 206.558 253.733 205.914 256.779 204.625C259.863 203.298 262.538 201.501 264.803 199.237C267.107 196.933 268.903 194.258 270.192 191.212C271.519 188.127 272.183 184.847 272.183 181.372Z" fill="white"/>
<path d="M206.055 223.368H189.245V139.376H206.055V223.368Z" fill="white"/>
<path d="M174.661 189.806C174.661 194.453 173.782 198.826 172.025 202.927C170.268 206.988 167.866 210.541 164.82 213.587C161.775 216.593 158.202 218.975 154.102 220.732C150.041 222.49 145.687 223.368 141.04 223.368C136.393 223.368 132.02 222.49 127.92 220.732C123.859 218.975 120.306 216.593 117.26 213.587C114.253 210.541 111.871 206.988 110.114 202.927C108.357 198.826 107.478 194.453 107.478 189.806V139.376H124.23V189.806C124.23 192.11 124.659 194.277 125.519 196.308C126.417 198.338 127.627 200.115 129.15 201.638C130.673 203.161 132.45 204.371 134.48 205.269C136.55 206.128 138.736 206.558 141.04 206.558C143.344 206.558 145.511 206.128 147.542 205.269C149.611 204.371 151.407 203.161 152.93 201.638C154.453 200.115 155.644 198.338 156.503 196.308C157.401 194.277 157.85 192.11 157.85 189.806V139.376H174.661V189.806Z" fill="white"/>
<path d="M98.6338 214.758C94.729 218.116 90.3556 220.694 85.5136 222.49C80.6716 224.286 75.654 225.184 70.4606 225.184C66.4776 225.184 62.6314 224.657 58.9218 223.603C55.2513 222.587 51.7956 221.143 48.5546 219.268C45.3526 217.355 42.424 215.071 39.7687 212.415C37.1135 209.76 34.8291 206.831 32.9158 203.629C31.0415 200.388 29.5772 196.933 28.5229 193.262C27.5076 189.553 27 185.706 27 181.723C27 177.741 27.5076 173.894 28.5229 170.185C29.5772 166.475 31.0415 163.019 32.9158 159.817C34.8291 156.576 37.1135 153.628 39.7687 150.973C42.424 148.318 45.3526 146.053 48.5546 144.179C51.7956 142.265 55.2513 140.801 58.9218 139.786C62.6314 138.731 66.4776 138.204 70.4606 138.204C75.654 138.204 80.6716 139.102 85.5136 140.899C90.3556 142.656 94.729 145.233 98.6338 148.63L89.7308 163.273C87.2708 160.618 84.3617 158.587 81.0036 157.182C77.6454 155.737 74.1311 155.015 70.4606 155.015C66.751 155.015 63.2757 155.717 60.0347 157.123C56.7937 158.529 53.9627 160.442 51.5417 162.863C49.1208 165.245 47.2074 168.076 45.8017 171.356C44.3959 174.597 43.6931 178.053 43.6931 181.723C43.6931 185.394 44.3959 188.85 45.8017 192.091C47.2074 195.293 49.1208 198.104 51.5417 200.525C53.9627 202.946 56.7937 204.859 60.0347 206.265C63.2757 207.671 66.751 208.374 70.4606 208.374C74.1311 208.374 77.6454 207.671 81.0036 206.265C84.3617 204.82 87.2708 202.77 89.7308 200.115L98.6338 214.758Z" fill="white"/>
<path d="M417.164 252.307C413.965 252.307 412.365 253.907 412.365 257.106V263.703H432.758V257.106C432.758 253.907 431.158 252.307 427.96 252.307H417.164ZM451.351 300.89C435.917 302.489 421.922 303.289 409.366 303.289C403.928 303.289 399.57 301.649 396.291 298.371C393.012 295.092 391.373 290.733 391.373 285.295V256.506C391.373 250.508 393.052 245.83 396.411 242.471C399.85 239.032 404.568 237.313 410.566 237.313H434.557C440.555 237.313 445.233 239.032 448.592 242.471C452.031 245.83 453.75 250.508 453.75 256.506V278.698H412.365V283.496C412.365 284.696 412.765 285.695 413.565 286.495C414.365 287.295 415.364 287.694 416.564 287.694C424.481 287.694 436.077 287.095 451.351 285.895V300.89Z" fill="#003164"/>
<path d="M390.15 234.314C387.831 234.154 384.752 233.914 380.913 233.595C377.074 233.275 373.756 233.115 370.957 233.115C368.158 233.115 366.358 233.515 365.559 234.314C364.759 235.114 364.359 236.114 364.359 237.313V243.311H384.152V259.505H364.359V302.089H343.367V259.505H334.97V243.311H343.367V234.914C343.367 229.476 345.006 225.118 348.285 221.839C351.564 218.56 355.922 216.921 361.36 216.921C366.238 216.921 371.397 217.081 376.835 217.4C382.273 217.72 386.711 217.96 390.15 218.12V234.314Z" fill="#003164"/>
<path d="M326.536 240.912V302.089H305.543V257.106H296.547V240.912H326.536ZM305.543 216.921H326.536V233.714H305.543V216.921Z" fill="#003164"/>
<path d="M290.573 300.89C275.618 302.489 262.423 303.289 250.987 303.289C245.549 303.289 241.191 301.649 237.912 298.371C234.633 295.092 232.994 290.733 232.994 285.295V257.706C232.994 251.708 234.673 247.03 238.032 243.671C241.471 240.232 246.189 238.513 252.187 238.513H290.573V254.707H258.784C255.586 254.707 253.986 256.306 253.986 259.505V282.896C253.986 284.096 254.386 285.096 255.186 285.895C255.985 286.695 256.985 287.095 258.185 287.095C265.382 287.095 276.178 286.495 290.573 285.295V300.89Z" fill="#003164"/>
<path d="M186.858 252.307C183.659 252.307 182.059 253.907 182.059 257.106V263.703H202.452V257.106C202.452 253.907 200.852 252.307 197.654 252.307H186.858ZM221.045 300.89C205.611 302.489 191.616 303.289 179.061 303.289C173.623 303.289 169.264 301.649 165.985 298.371C162.707 295.092 161.067 290.733 161.067 285.295V256.506C161.067 250.508 162.747 245.83 166.105 242.471C169.544 239.032 174.262 237.313 180.26 237.313H204.251C210.249 237.313 214.927 239.032 218.286 242.471C221.725 245.83 223.444 250.508 223.444 256.506V278.698H182.059V283.496C182.059 284.696 182.459 285.695 183.259 286.495C184.059 287.295 185.058 287.694 186.258 287.694C194.175 287.694 205.771 287.095 221.045 285.895V300.89Z" fill="#003164"/>
<path d="M146.021 255.906C140.983 255.906 135.785 257.106 130.427 259.505V302.089H109.435V238.513H128.028L129.227 246.31C136.105 240.312 143.302 237.313 150.819 237.313H156.217V255.906H146.021Z" fill="#003164"/>
</svg>
