<svg width="39" height="38" viewBox="0 0 39 38" fill="none" xmlns="http://www.w3.org/2000/svg">
<g id="tabler:moon">
<path id="Vector" d="M19.5 4.97615H20.1157C18.1033 6.84609 16.8097 9.36208 16.4599 12.0868C16.1101 14.8115 16.7262 17.5727 18.201 19.8903C19.6758 22.2079 21.9161 23.9354 24.5325 24.7726C27.1489 25.6098 29.976 25.5037 32.5223 24.4727C31.5428 26.8295 29.9419 28.8761 27.8904 30.3944C25.839 31.9127 23.4138 32.8456 20.8737 33.0937C18.3336 33.3417 15.7738 32.8956 13.4673 31.8029C11.1609 30.7102 9.19427 29.0119 7.77735 26.8891C6.36042 24.7664 5.54629 22.2988 5.42181 19.7497C5.29733 17.2005 5.86716 14.6654 7.07052 12.4147C8.27388 10.1639 10.0656 8.28211 12.2546 6.96988C14.4437 5.65765 16.9478 4.96424 19.5 4.96362V4.97615Z" stroke="white" stroke-width="4" stroke-linecap="round" stroke-linejoin="round"/>
</g>
</svg>
