<svg width="121" height="121" viewBox="0 0 121 121" fill="none" xmlns="http://www.w3.org/2000/svg">
<path fill-rule="evenodd" clip-rule="evenodd" d="M60.4999 110.917C88.345 110.917 110.917 88.3451 110.917 60.5C110.917 32.6549 88.345 10.0833 60.4999 10.0833C32.6548 10.0833 10.0833 32.6549 10.0833 60.5C10.0833 88.3451 32.6548 110.917 60.4999 110.917ZM84.2311 43.8978C85.1494 42.9469 85.6576 41.6734 85.6461 40.3515C85.6346 39.0296 85.1044 37.765 84.1696 36.8303C83.2349 35.8955 81.9704 35.3653 80.6484 35.3538C79.3265 35.3423 78.053 35.8505 77.1021 36.7689L36.7688 77.1022C36.2873 77.5673 35.9032 78.1236 35.639 78.7387C35.3747 79.3538 35.2356 80.0154 35.2298 80.6848C35.224 81.3542 35.3516 82.0181 35.6051 82.6377C35.8586 83.2573 36.2329 83.8202 36.7063 84.2936C37.1797 84.767 37.7426 85.1413 38.3622 85.3948C38.9818 85.6483 39.6457 85.7759 40.3151 85.7701C40.9845 85.7643 41.6461 85.6252 42.2612 85.361C42.8763 85.0967 43.4326 84.7126 43.8977 84.2311L84.2311 43.8978Z" fill="#FFCD00"/>
</svg>
