<svg width="45" height="45" viewBox="0 0 45 45" fill="none" xmlns="http://www.w3.org/2000/svg">
<g id="material-symbols:pill">
<path id="Vector" d="M31.3125 28.6406L36.2812 23.625C37.2812 22.625 38.0469 21.4844 38.5781 20.2031C39.1094 18.9219 39.375 17.5781 39.375 16.1719C39.375 13.2344 38.3519 10.7419 36.3056 8.69438C34.2594 6.64688 31.7669 5.62375 28.8281 5.625C27.4219 5.625 26.0781 5.89063 24.7969 6.42188C23.5156 6.95313 22.375 7.71875 21.375 8.71875L16.3594 13.6875L31.3125 28.6406ZM16.1719 39.375C17.5781 39.375 18.9219 39.1094 20.2031 38.5781C21.4844 38.0469 22.625 37.2812 23.625 36.2812L28.6406 31.3125L13.6875 16.3594L8.71875 21.375C7.71875 22.375 6.95312 23.5156 6.42187 24.7969C5.89062 26.0781 5.625 27.4219 5.625 28.8281C5.625 31.7656 6.64875 34.2575 8.69625 36.3037C10.7438 38.35 13.2356 39.3737 16.1719 39.375Z" fill="#2196F3"/>
</g>
</svg>
