<svg width="68" height="68" viewBox="0 0 68 68" fill="none" xmlns="http://www.w3.org/2000/svg">
<g id="fluent-emoji-flat:plus">
<path id="Vector" d="M40.4812 10.7525C40.4812 7.1825 37.57 4.25 33.9787 4.25C30.3875 4.25 27.455 7.1825 27.4762 10.7525V27.4762H10.7525C7.1825 27.4762 4.25 30.3875 4.25 33.9787C4.25 37.5487 7.1825 40.4812 10.7525 40.4812H27.4762V57.1837C27.4762 60.7537 30.3875 63.6862 33.9787 63.6862C37.5487 63.6862 40.4812 60.775 40.4812 57.1837V40.4812H57.1837C60.7537 40.4812 63.6862 37.57 63.6862 33.9787C63.6862 30.4087 60.775 27.4762 57.1837 27.4762H40.4812V10.7525Z" fill="#2196F3"/>
</g>
</svg>
